<svg xmlns="http://www.w3.org/2000/svg" viewBox="0 0 800 1067"><filter id="b"><feGaussianBlur stdDeviation="12" /></filter><path fill="#8b7d72" d="M0 0h800v1067H0z"/><g filter="url(#b)" transform="translate(2 2) scale(4.16797)" fill-opacity=".5"><ellipse fill="#fff" cx="149" cy="216" rx="191" ry="20"/><ellipse fill="#000034" rx="1" ry="1" transform="matrix(59.53837 16.38549 -11.41629 41.48227 86.2 147)"/><ellipse fill="#fffffa" rx="1" ry="1" transform="matrix(-29.5763 -8.78554 22.2456 -74.8893 180.6 165.3)"/><ellipse fill="#b90000" rx="1" ry="1" transform="matrix(53.69055 26.30273 -9.29801 18.9796 90 48.4)"/><ellipse rx="1" ry="1" transform="rotate(104.2 68.6 85.1) scale(33.59523 14.23422)"/><ellipse fill="#e9f0d0" rx="1" ry="1" transform="rotate(149.9 -17.1 87.7) scale(29.72201 66.3851)"/><path fill="#000b44" d="M78 137l63-66-34 141z"/><path fill="#070800" d="M36.6 7.2l58.8-13 48.7 20-43.4 2z"/></g></svg>