<svg xmlns="http://www.w3.org/2000/svg" viewBox="0 0 960 640"><filter id="b"><feGaussianBlur stdDeviation="12" /></filter><path fill="#232323" d="M0 0h960v637H0z"/><g filter="url(#b)" transform="matrix(3.75 0 0 3.75 1.9 1.9)" fill-opacity=".5"><ellipse fill="#e3e3e3" rx="1" ry="1" transform="matrix(1.70398 -37.52461 65.9753 2.99592 132.5 44.2)"/><ellipse rx="1" ry="1" transform="matrix(-6.70698 36.31384 -16.14448 -2.9818 127.8 65.4)"/><ellipse rx="1" ry="1" transform="rotate(-11.1 632.5 -173.8) scale(48.06474 171.16969)"/><ellipse cx="246" cy="129" rx="65" ry="147"/><ellipse fill="#e8e8e8" rx="1" ry="1" transform="matrix(-15.01397 28.46198 -12.79217 -6.748 102.8 45)"/><ellipse cx="142" cy="141" rx="255" ry="41"/><path fill="#acacac" d="M147 10h49v65h-49z"/><ellipse fill="#474747" rx="1" ry="1" transform="matrix(-.77183 -18.12976 43.4527 -1.8499 130.6 86.5)"/></g></svg>