<svg xmlns="http://www.w3.org/2000/svg" viewBox="0 0 1200 1798"><filter id="b"><feGaussianBlur stdDeviation="12" /></filter><path fill="#8b8675" d="M0 0h1201v1798H0z"/><g filter="url(#b)" transform="translate(3.5 3.5) scale(7.02344)" fill-opacity=".5"><ellipse rx="1" ry="1" transform="matrix(4.26738 -168.14245 32.756 .83133 21.6 88.2)"/><path fill="#ffedd3" d="M74.2 65.7l98.5-10.3 21 200.9-98.4 10.3z"/><ellipse fill="#00d4dc" rx="1" ry="1" transform="matrix(14.80702 -42.60703 31.0584 10.79358 79.2 215)"/><ellipse fill="#fff8cc" rx="1" ry="1" transform="rotate(-156.6 48.6 1.8) scale(31.37486 25.02869)"/><ellipse fill="#ffcca4" rx="1" ry="1" transform="matrix(-11.51257 6.43416 -20.46495 -36.61772 65 144)"/><ellipse rx="1" ry="1" transform="matrix(-2.43623 -8.262 64.75338 -19.09394 137 43.7)"/><ellipse cx="8" cy="59" rx="18" ry="128"/><ellipse fill="#003744" rx="1" ry="1" transform="matrix(19.82867 -4.10632 6.38607 30.83717 48.2 195.1)"/></g></svg>